<?xml version="1.0"?>
<svg xmlns="http://www.w3.org/2000/svg" height="512px" viewBox="0 -71 512 512" width="512px" class=""><g><path d="m472 180h-46c-5.449219-11.988281-44.601562-98.125-50-110h-306v230h432c0-10.535156 0-75.726562 0-90 0-16.570312-13.429688-30-30-30zm0 0" fill="#ff641a" data-original="#FF641A" class="" style="fill:#FF0000" data-old_color="#ff641a"/><path d="m436 315c0 24.851562-20.148438 45-45 45s-45-20.148438-45-45c0-24.734375 20.039062-45 45-45 24.929688 0 45 20.238281 45 45zm0 0" fill="#7c8388" data-original="#7C8388"/><path d="m393.699219 108.941406-2.320313 1.058594c-24.898437 0-202.457031 0-225.378906 0v70h260zm0 0" fill="#deecf1" data-original="#DEECF1"/><path d="m196 315c0 24.851562-20.148438 45-45 45s-45-20.148438-45-45c0-24.734375 20.039062-45 45-45 24.929688 0 45 20.238281 45 45zm0 0" fill="#7c8388" data-original="#7C8388"/><path d="m70 240h-30c-16.570312 0-30-13.429688-30-30v-60c0-16.570312 13.429688-30 30-30h30zm0 0" fill="#7c8388" data-original="#7C8388"/><path d="m472 170h-39.5625l-47.335938-104.136719c-1.621093-3.570312-5.179687-5.863281-9.101562-5.863281h-83.820312l-27.238282-54.472656c-1.691406-3.386719-5.152344-5.527344-8.941406-5.527344h-186c-5.523438 0-10 4.476562-10 10v100h-20c-22.054688 0-40 17.945312-40 40v60c0 22.054688 17.945312 40 40 40h20v40h-20c-5.523438 0-10 4.476562-10 10s4.476562 9.988281 10 9.988281h56.230469c-.148438 1.65625-.230469 3.324219-.230469 5 0 30.328125 24.671875 55.011719 55 55.011719s55-24.671875 55-55c0-1.679688-.078125-3.34375-.230469-5h25.230469c5.523438 0 10-4.476562 10-10s-4.476562-10-10-10h-31.015625c-9.289063-18.195312-28.15625-30-48.984375-30s-39.695312 11.804688-48.984375 30h-22.015625c0-9.542969 0-200.925781 0-210h289.5625l9.089844 20h-212.652344c-5.523438 0-10 4.476562-10 10v70c0 5.523438 4.476562 10 10 10h306c11.027344 0 20 8.972656 20 20v20h-20c-5.523438 0-10 4.476562-10 10s4.476562 10 10 10h20v40h-52.015625c-9.289063-18.195312-28.15625-30-48.984375-30s-39.695312 11.804688-48.984375 30h-21.015625c-5.523438 0-10 4.476562-10 10s4.476562 9.988281 10 9.988281h15.230469c-.148438 1.65625-.230469 3.324219-.230469 5 0 30.328125 24.671875 55.011719 55 55.011719s55-24.671875 55-55c0-1.679688-.078125-3.34375-.230469-5h56.230469c5.523438 0 10-4.476562 10-10v-90c0-22.054688-17.945312-40-40-40zm-321 110c14.8125 0 28.074219 9.375 33.011719 23.355469 1.316406 3.707031 1.988281 7.625 1.988281 11.644531 0 19.300781-15.699219 35-35 35s-35-15.699219-35-35c0-4.019531.671875-7.9375 1.988281-11.644531.003907-.011719.007813-.019531.011719-.027344 4.925781-13.953125 18.1875-23.328125 33-23.328125zm118.820312-220h-63.820312v-40h43.820312zm-83.820312 0h-40v-40h40zm-60-40v40h-46v-40zm-86 210c-11.027344 0-20-8.972656-20-20v-60c0-11.027344 8.972656-20 20-20h20v100zm370.46875-60h-114.46875v-50h91.742188zm-234.46875-50h100v50h-100zm215 230c-19.300781 0-35-15.699219-35-35 0-19.34375 15.71875-35 35-35 19.265625 0 35 15.636719 35 35 0 19.300781-15.699219 35-35 35zm0 0" data-original="#000000" class="active-path" style="fill:#000000" data-old_color="#000000"/><path d="m326 240c0-5.523438-4.476562-10-10-10h-60c-5.523438 0-10 4.476562-10 10s4.476562 10 10 10h60c5.523438 0 10-4.476562 10-10zm0 0" data-original="#000000" class="active-path" style="fill:#000000" data-old_color="#000000"/><path d="m152.199219 330c8.273437 0 15-6.730469 15-15s-6.726563-15-15-15c-8.269531 0-15 6.730469-15 15s6.730469 15 15 15zm0 0" data-original="#000000" class="active-path" style="fill:#000000" data-old_color="#000000"/><path d="m392.199219 300c-8.269531 0-15 6.730469-15 15s6.730469 15 15 15c8.273437 0 15-6.730469 15-15s-6.726563-15-15-15zm0 0" data-original="#000000" class="active-path" style="fill:#000000" data-old_color="#000000"/><path d="m286 300c0 5.523438-4.476562 10-10 10s-10-4.476562-10-10 4.476562-10 10-10 10 4.476562 10 10zm0 0" data-original="#000000" class="active-path" style="fill:#000000" data-old_color="#000000"/></g> </svg>
